
<svg width="302px" height="48px" viewBox="0 0 302 48" version="1.1" xmlns="http://www.w3.org/2000/svg" xmlns:xlink="http://www.w3.org/1999/xlink">
	<g id="Page-1" stroke="none" stroke-width="1" fill="none" fill-rule="evenodd">
		<g id="logo" fill="#000000">
			<path d="M0.311523438,14.1972656 C0.311523438,13.8144512 0.384439375,13.4521501 0.530273438,13.1103516 C0.6761075,12.768553 0.876626328,12.472332 1.13183594,12.2216797 C1.38704555,11.9710274 1.68554517,11.7705086 2.02734375,11.6201172 C2.36914233,11.4697258 2.7314434,11.3945312 3.11425781,11.3945312 L13.7509766,11.3945312 C14.133791,11.3945312 14.496092,11.4697258 14.8378906,11.6201172 C15.1796892,11.7705086 15.4781888,11.9710274 15.7333984,12.2216797 C15.988608,12.472332 16.1891269,12.768553 16.3349609,13.1103516 C16.480795,13.4521501 16.5537109,13.8144512 16.5537109,14.1972656 L16.5537109,16.7265625 L13.7509766,16.7265625 L13.7509766,14.1972656 L3.11425781,14.1972656 L3.11425781,28.1972656 L13.7509766,28.1972656 L13.7509766,23.4394531 L8.43261719,23.4394531 L8.43261719,20.6367188 L16.5537109,20.6367188 L16.5537109,28.1972656 C16.5537109,28.58008 16.480795,28.9423811 16.3349609,29.2841797 C16.1891269,29.6259783 15.988608,29.9244779 15.7333984,30.1796875 C15.4781888,30.4348971 15.1796892,30.6354159 14.8378906,30.78125 C14.496092,30.9270841 14.133791,31 13.7509766,31 L3.11425781,31 C2.7314434,31 2.36914233,30.9270841 2.02734375,30.78125 C1.68554517,30.6354159 1.38704555,30.4348971 1.13183594,30.1796875 C0.876626328,29.9244779 0.6761075,29.6259783 0.530273438,29.2841797 C0.384439375,28.9423811 0.311523438,28.58008 0.311523438,28.1972656 L0.311523438,14.1972656 Z M30.2666016,11.3945312 L37.8271484,31 L35.0244141,31 L33.2880859,26.4882812 L24.4423828,26.4882812 L22.7060547,31 L19.9033203,31 L27.4638672,11.3945312 L30.2666016,11.3945312 Z M25.5087891,23.6855469 L32.2080078,23.6855469 L28.8720703,15.0449219 L25.5087891,23.6855469 Z M56.6806641,18.3945312 C56.6806641,21.1289199 55.5140091,22.6874981 53.1806641,23.0703125 L56.8720703,31 L53.7685547,31 L50.1318359,23.1660156 L43.9931641,23.1660156 L43.9931641,31 L41.1904297,31 L41.1904297,11.3945312 L51.9228516,11.3945312 C55.0947424,11.3945312 56.6806641,12.9850101 56.6806641,16.1660156 L56.6806641,18.3945312 Z M43.9931641,20.3632812 L51.7724609,20.3632812 C52.5198605,20.3632812 53.0576155,20.1992204 53.3857422,19.8710938 C53.7138688,19.5429671 53.8779297,19.0052121 53.8779297,18.2578125 L53.8779297,16.3027344 C53.8779297,15.5553348 53.7138688,15.0175798 53.3857422,14.6894531 C53.0576155,14.3613265 52.5198605,14.1972656 51.7724609,14.1972656 L43.9931641,14.1972656 L43.9931641,20.3632812 Z M70.0380859,11.3945312 L77.5986328,31 L74.7958984,31 L73.0595703,26.4882812 L64.2138672,26.4882812 L62.4775391,31 L59.6748047,31 L67.2353516,11.3945312 L70.0380859,11.3945312 Z M65.2802734,23.6855469 L71.9794922,23.6855469 L68.6435547,15.0449219 L65.2802734,23.6855469 Z M80.9619141,14.1972656 C80.9619141,13.8144512 81.03483,13.4521501 81.1806641,13.1103516 C81.3264981,12.768553 81.527017,12.472332 81.7822266,12.2216797 C82.0374362,11.9710274 82.3359358,11.7705086 82.6777344,11.6201172 C83.019533,11.4697258 83.381834,11.3945312 83.7646484,11.3945312 L94.4013672,11.3945312 C94.7841816,11.3945312 95.1464827,11.4697258 95.4882812,11.6201172 C95.8300798,11.7705086 96.1285795,11.9710274 96.3837891,12.2216797 C96.6389987,12.472332 96.8395175,12.768553 96.9853516,13.1103516 C97.1311856,13.4521501 97.2041016,13.8144512 97.2041016,14.1972656 L97.2041016,16.7265625 L94.4013672,16.7265625 L94.4013672,14.1972656 L83.7646484,14.1972656 L83.7646484,28.1972656 L94.4013672,28.1972656 L94.4013672,23.4394531 L89.0830078,23.4394531 L89.0830078,20.6367188 L97.2041016,20.6367188 L97.2041016,28.1972656 C97.2041016,28.58008 97.1311856,28.9423811 96.9853516,29.2841797 C96.8395175,29.6259783 96.6389987,29.9244779 96.3837891,30.1796875 C96.1285795,30.4348971 95.8300798,30.6354159 95.4882812,30.78125 C95.1464827,30.9270841 94.7841816,31 94.4013672,31 L83.7646484,31 C83.381834,31 83.019533,30.9270841 82.6777344,30.78125 C82.3359358,30.6354159 82.0374362,30.4348971 81.7822266,30.1796875 C81.527017,29.9244779 81.3264981,29.6259783 81.1806641,29.2841797 C81.03483,28.9423811 80.9619141,28.58008 80.9619141,28.1972656 L80.9619141,14.1972656 Z M102.235352,11.3945312 L116.522461,11.3945312 L116.522461,14.1972656 L105.038086,14.1972656 L105.038086,19.8027344 L114.84082,19.8027344 L114.84082,22.6054688 L105.038086,22.6054688 L105.038086,28.1972656 L116.522461,28.1972656 L116.522461,31 L102.235352,31 L102.235352,11.3945312 Z" id="GARAGE"></path>
			<g id="karaoke-microphone-icon" transform="translate(115.000000, 0.000000)">
				<path d="M44.159,3.341 C41.932,1.115 39.013,0 36.093,0 C33.174,0 30.255,1.114 28.029,3.341 C23.575,7.795 23.575,15.018 28.029,19.472 C30.256,21.699 33.175,22.813 36.093,22.813 C39.011,22.813 41.932,21.699 44.159,19.472 C48.613,15.019 48.613,7.796 44.159,3.341 Z" id="Path"></path>
				<path d="M22.161,14.999 L0.646,39.161 C-0.254,40.172 -0.208,41.765 0.749,42.723 L1.881,43.856 L1.158,44.58 C0.681,45.057 0.681,45.836 1.158,46.311 L1.266,46.419 C1.743,46.897 2.522,46.897 2.999,46.419 L3.722,45.695 L4.777,46.75 C5.734,47.707 7.329,47.753 8.34,46.854 L32.495,25.345 C30.026,24.712 27.756,23.443 25.906,21.593 C24.019,19.706 22.779,17.416 22.161,14.999 Z M21.02,29.268 L15.875,34.414 C15.105,35.185 13.857,35.185 13.088,34.414 C12.319,33.643 12.318,32.394 13.088,31.627 L18.233,26.481 C19.003,25.71 20.251,25.71 21.02,26.481 C21.789,27.251 21.79,28.499 21.02,29.268 Z" id="Shape" fill-rule="nonzero"></path>
			</g>
			<path d="M170.898438,11.3945312 L170.898438,19.8574219 L180.25,11.3945312 L184.201172,11.3945312 L173.591797,21.0058594 L184.625,31 L180.673828,31 L170.898438,22.1816406 L170.898438,31 L168.095703,31 L168.095703,11.3945312 L170.898438,11.3945312 Z M195.849609,11.3945312 L203.410156,31 L200.607422,31 L198.871094,26.4882812 L190.025391,26.4882812 L188.289062,31 L185.486328,31 L193.046875,11.3945312 L195.849609,11.3945312 Z M191.091797,23.6855469 L197.791016,23.6855469 L194.455078,15.0449219 L191.091797,23.6855469 Z M222.263672,18.3945312 C222.263672,21.1289199 221.097017,22.6874981 218.763672,23.0703125 L222.455078,31 L219.351562,31 L215.714844,23.1660156 L209.576172,23.1660156 L209.576172,31 L206.773438,31 L206.773438,11.3945312 L217.505859,11.3945312 C220.67775,11.3945312 222.263672,12.9850101 222.263672,16.1660156 L222.263672,18.3945312 Z M209.576172,20.3632812 L217.355469,20.3632812 C218.102868,20.3632812 218.640623,20.1992204 218.96875,19.8710938 C219.296877,19.5429671 219.460938,19.0052121 219.460938,18.2578125 L219.460938,16.3027344 C219.460938,15.5553348 219.296877,15.0175798 218.96875,14.6894531 C218.640623,14.3613265 218.102868,14.1972656 217.355469,14.1972656 L209.576172,14.1972656 L209.576172,20.3632812 Z M235.621094,11.3945312 L243.181641,31 L240.378906,31 L238.642578,26.4882812 L229.796875,26.4882812 L228.060547,31 L225.257812,31 L232.818359,11.3945312 L235.621094,11.3945312 Z M230.863281,23.6855469 L237.5625,23.6855469 L234.226562,15.0449219 L230.863281,23.6855469 Z M263.347656,28.1972656 C263.347656,28.58008 263.27474,28.9423811 263.128906,29.2841797 C262.983072,29.6259783 262.782553,29.9244779 262.527344,30.1796875 C262.272134,30.4348971 261.973635,30.6354159 261.631836,30.78125 C261.290037,30.9270841 260.927736,31 260.544922,31 L249.347656,31 C248.964842,31 248.602541,30.9270841 248.260742,30.78125 C247.918944,30.6354159 247.620444,30.4348971 247.365234,30.1796875 C247.110025,29.9244779 246.909506,29.6259783 246.763672,29.2841797 C246.617838,28.9423811 246.544922,28.58008 246.544922,28.1972656 L246.544922,14.1972656 C246.544922,13.8144512 246.617838,13.4521501 246.763672,13.1103516 C246.909506,12.768553 247.110025,12.472332 247.365234,12.2216797 C247.620444,11.9710274 247.918944,11.7705086 248.260742,11.6201172 C248.602541,11.4697258 248.964842,11.3945312 249.347656,11.3945312 L260.544922,11.3945312 C260.927736,11.3945312 261.290037,11.4697258 261.631836,11.6201172 C261.973635,11.7705086 262.272134,11.9710274 262.527344,12.2216797 C262.782553,12.472332 262.983072,12.768553 263.128906,13.1103516 C263.27474,13.4521501 263.347656,13.8144512 263.347656,14.1972656 L263.347656,28.1972656 Z M249.347656,14.1972656 L249.347656,28.1972656 L260.544922,28.1972656 L260.544922,14.1972656 L249.347656,14.1972656 Z M271.181641,11.3945312 L271.181641,19.8574219 L280.533203,11.3945312 L284.484375,11.3945312 L273.875,21.0058594 L284.908203,31 L280.957031,31 L271.181641,22.1816406 L271.181641,31 L268.378906,31 L268.378906,11.3945312 L271.181641,11.3945312 Z M287.451172,11.3945312 L301.738281,11.3945312 L301.738281,14.1972656 L290.253906,14.1972656 L290.253906,19.8027344 L300.056641,19.8027344 L300.056641,22.6054688 L290.253906,22.6054688 L290.253906,28.1972656 L301.738281,28.1972656 L301.738281,31 L287.451172,31 L287.451172,11.3945312 Z" id="KARAOKE"></path>
		</g>
	</g>
</svg>
